<mxfile host="65bd71144e">
    <diagram id="VkrlUIzTRJOL_tLEYbOb" name="Page-1">
        <mxGraphModel dx="728" dy="1613" grid="0" gridSize="10" guides="1" tooltips="1" connect="1" arrows="1" fold="1" page="1" pageScale="1" pageWidth="850" pageHeight="1100" math="0" shadow="0">
            <root>
                <mxCell id="0"/>
                <mxCell id="1" parent="0"/>
                <mxCell id="30" style="edgeStyle=none;html=1;exitX=0.5;exitY=0;exitDx=0;exitDy=0;fontColor=#00CCCC;entryX=0.516;entryY=1.153;entryDx=0;entryDy=0;entryPerimeter=0;" edge="1" parent="1" source="24" target="29">
                    <mxGeometry relative="1" as="geometry">
                        <mxPoint x="703" y="153" as="targetPoint"/>
                    </mxGeometry>
                </mxCell>
                <mxCell id="24" value="&lt;b&gt;Stage 1&lt;/b&gt;" style="swimlane;fontStyle=0;childLayout=stackLayout;horizontal=1;startSize=30;horizontalStack=0;resizeParent=1;resizeParentMax=0;resizeLast=0;collapsible=1;marginBottom=0;fontColor=#00CCCC;html=1;" vertex="1" parent="1">
                    <mxGeometry x="592" y="223" width="140" height="60" as="geometry">
                        <mxRectangle x="592" y="223" width="70" height="30" as="alternateBounds"/>
                    </mxGeometry>
                </mxCell>
                <mxCell id="25" value="Normal worm (maggot)." style="text;strokeColor=none;fillColor=none;align=center;verticalAlign=middle;spacingLeft=4;spacingRight=4;overflow=width;points=[[0,0.5],[1,0.5]];portConstraint=eastwest;rotatable=0;fontColor=#00CCCC;html=1;labelPadding=30;" vertex="1" parent="24">
                    <mxGeometry y="30" width="140" height="30" as="geometry"/>
                </mxCell>
                <mxCell id="33" style="edgeStyle=none;html=1;exitX=0;exitY=0.25;exitDx=0;exitDy=0;fontColor=#00CCCC;entryX=0.53;entryY=1.065;entryDx=0;entryDy=0;entryPerimeter=0;" edge="1" parent="1" source="28" target="32">
                    <mxGeometry relative="1" as="geometry">
                        <mxPoint x="479.66781277126734" y="-90.64284769694018" as="targetPoint"/>
                    </mxGeometry>
                </mxCell>
                <mxCell id="28" value="&lt;b&gt;Stage 2&lt;/b&gt;" style="swimlane;fontStyle=0;childLayout=stackLayout;horizontal=1;startSize=30;horizontalStack=0;resizeParent=1;resizeParentMax=0;resizeLast=0;collapsible=1;marginBottom=0;fontColor=#00CCCC;html=1;" vertex="1" parent="1">
                    <mxGeometry x="592" y="25" width="140" height="85" as="geometry">
                        <mxRectangle x="592" y="223" width="70" height="30" as="alternateBounds"/>
                    </mxGeometry>
                </mxCell>
                <mxCell id="29" value="Longer worm.&lt;br&gt;Does nothing special&lt;br&gt;" style="text;strokeColor=none;fillColor=none;align=center;verticalAlign=middle;spacingLeft=4;spacingRight=4;overflow=width;points=[[0,0.5],[1,0.5]];portConstraint=eastwest;rotatable=0;fontColor=#00CCCC;html=1;labelPadding=30;" vertex="1" parent="28">
                    <mxGeometry y="30" width="140" height="55" as="geometry"/>
                </mxCell>
                <mxCell id="37" style="edgeStyle=none;html=1;exitX=0.5;exitY=0;exitDx=0;exitDy=0;entryX=0.485;entryY=1.053;entryDx=0;entryDy=0;entryPerimeter=0;fontColor=#00CCCC;" edge="1" parent="1" source="31" target="35">
                    <mxGeometry relative="1" as="geometry"/>
                </mxCell>
                <mxCell id="40" style="edgeStyle=none;html=1;exitX=0.5;exitY=0;exitDx=0;exitDy=0;entryX=0.5;entryY=1;entryDx=0;entryDy=0;fontColor=#00CCCC;" edge="1" parent="1" source="31" target="38">
                    <mxGeometry relative="1" as="geometry"/>
                </mxCell>
                <mxCell id="31" value="&lt;b&gt;Stage 3&lt;/b&gt;" style="swimlane;fontStyle=0;childLayout=stackLayout;horizontal=1;startSize=30;horizontalStack=0;resizeParent=1;resizeParentMax=0;resizeLast=0;collapsible=1;marginBottom=0;fontColor=#00CCCC;html=1;" vertex="1" parent="1">
                    <mxGeometry x="409" y="-185" width="155" height="99" as="geometry">
                        <mxRectangle x="592" y="223" width="70" height="30" as="alternateBounds"/>
                    </mxGeometry>
                </mxCell>
                <mxCell id="32" value="Copper tip worm.&lt;br&gt;Spawns a coin wen it dies." style="text;strokeColor=none;fillColor=none;align=center;verticalAlign=middle;spacingLeft=4;spacingRight=4;overflow=width;points=[[0,0.5],[1,0.5]];portConstraint=eastwest;rotatable=0;fontColor=#00CCCC;html=1;labelPadding=30;" vertex="1" parent="31">
                    <mxGeometry y="30" width="155" height="69" as="geometry"/>
                </mxCell>
                <mxCell id="34" value="&lt;b&gt;Stage 4&lt;/b&gt;" style="swimlane;fontStyle=0;childLayout=stackLayout;horizontal=1;startSize=30;horizontalStack=0;resizeParent=1;resizeParentMax=0;resizeLast=0;collapsible=1;marginBottom=0;fontColor=#00CCCC;html=1;" vertex="1" parent="1">
                    <mxGeometry x="205" y="-405" width="171" height="99" as="geometry">
                        <mxRectangle x="592" y="223" width="70" height="30" as="alternateBounds"/>
                    </mxGeometry>
                </mxCell>
                <mxCell id="35" value="Silver tip worm.&lt;br&gt;Spawns a nickel when dead." style="text;strokeColor=none;fillColor=none;align=center;verticalAlign=middle;spacingLeft=4;spacingRight=4;overflow=width;points=[[0,0.5],[1,0.5]];portConstraint=eastwest;rotatable=0;fontColor=#00CCCC;html=1;labelPadding=30;" vertex="1" parent="34">
                    <mxGeometry y="30" width="171" height="69" as="geometry"/>
                </mxCell>
                <mxCell id="38" value="&lt;b&gt;Stage 5&lt;/b&gt;" style="swimlane;fontStyle=0;childLayout=stackLayout;horizontal=1;startSize=30;horizontalStack=0;resizeParent=1;resizeParentMax=0;resizeLast=0;collapsible=1;marginBottom=0;fontColor=#00CCCC;html=1;" vertex="1" parent="1">
                    <mxGeometry x="415" y="-410" width="155" height="99" as="geometry">
                        <mxRectangle x="592" y="223" width="70" height="30" as="alternateBounds"/>
                    </mxGeometry>
                </mxCell>
                <mxCell id="39" value="Gold tip worm.&lt;br&gt;Spawns a coin wen it dies." style="text;strokeColor=none;fillColor=none;align=center;verticalAlign=middle;spacingLeft=4;spacingRight=4;overflow=width;points=[[0,0.5],[1,0.5]];portConstraint=eastwest;rotatable=0;fontColor=#00CCCC;html=1;labelPadding=30;" vertex="1" parent="38">
                    <mxGeometry y="30" width="155" height="69" as="geometry"/>
                </mxCell>
                <mxCell id="41" value="&lt;b&gt;Stage 6&lt;/b&gt;" style="swimlane;fontStyle=0;childLayout=stackLayout;horizontal=1;startSize=30;horizontalStack=0;resizeParent=1;resizeParentMax=0;resizeLast=0;collapsible=1;marginBottom=0;fontColor=#00CCCC;html=1;" vertex="1" parent="1">
                    <mxGeometry x="68" y="-178" width="140" height="85" as="geometry">
                        <mxRectangle x="592" y="223" width="70" height="30" as="alternateBounds"/>
                    </mxGeometry>
                </mxCell>
                <mxCell id="42" value="Even longer worm." style="text;strokeColor=none;fillColor=none;align=center;verticalAlign=middle;spacingLeft=4;spacingRight=4;overflow=width;points=[[0,0.5],[1,0.5]];portConstraint=eastwest;rotatable=0;fontColor=#00CCCC;html=1;labelPadding=30;" vertex="1" parent="41">
                    <mxGeometry y="30" width="140" height="55" as="geometry"/>
                </mxCell>
            </root>
        </mxGraphModel>
    </diagram>
</mxfile>